# xmcd CD database file
#
# Track frame offsets:
#	150
#	22381
#	46488
#	69048
#	95038
#	118531
#	144117
#	164523
#	185326
#	206271
#
# Disc length: 3052 seconds
#
# Revision: 0
# Processed by: cddbd v1.5.2PL0 Copyright (c) Steve Scherf et al.
# Submitted via: CDex 1.50Beta5
#
DISCID=860bea0a
DTITLE=Pete Gitlin - Full Circle and the Great Temptation
DYEAR=2008
DGENRE=Jazz
TTITLE0=Get Funkified
TTITLE1=Golden Love Light
TTITLE2=Chronic Ironic
TTITLE3=The Great Temptation
TTITLE4=Angel Love
TTITLE5=B Serious
TTITLE6=Jennette
TTITLE7=Sunshine Days
TTITLE8=Sunrise
TTITLE9=Full Circle
EXTD=YEAR: 2008
EXTT0=
EXTT1=
EXTT2=
EXTT3=
EXTT4=
EXTT5=
EXTT6=
EXTT7=
EXTT8=
EXTT9=
PLAYORDER=
